<?xml version="1.0" standalone="no"?>
<!DOCTYPE svg PUBLIC "-//W3C//DTD SVG 20010904//EN"
 "http://www.w3.org/TR/2001/REC-SVG-20010904/DTD/svg10.dtd">
<svg version="1.0" xmlns="http://www.w3.org/2000/svg"
 width="1024.000000pt" height="1024.000000pt" viewBox="0 0 1024.000000 1024.000000"
 preserveAspectRatio="xMidYMid meet">

<g transform="translate(0.000000,1024.000000) scale(0.100000,-0.100000)"
fill="#000000" stroke="none">
<path d="M5115 8844 c-5 -1 -27 -5 -48 -9 -46 -7 -101 -54 -129 -108 -42 -83
1 -199 92 -244 137 -70 295 40 277 194 -5 46 -40 99 -88 136 -25 18 -84 36
-104 31z"/>
<path d="M4310 8460 c-138 -19 -298 -83 -441 -175 -135 -87 -293 -274 -370
-439 -25 -53 -38 -70 -62 -78 -59 -21 -229 -108 -290 -150 -100 -67 -254 -230
-314 -332 -89 -151 -152 -351 -153 -482 0 -46 -3 -54 -33 -77 -111 -85 -213
-215 -286 -367 -65 -135 -99 -257 -108 -381 l-6 -99 -75 0 c-67 0 -76 2 -94
25 -55 70 -180 89 -262 41 -96 -56 -133 -172 -87 -272 24 -52 90 -108 146
-124 64 -18 136 1 190 51 41 37 45 39 112 39 l69 0 19 -97 c50 -268 201 -530
400 -689 97 -78 260 -164 381 -200 76 -22 114 -27 262 -31 l172 -6 1 -156 c1
-187 3 -203 30 -304 66 -242 260 -482 479 -592 72 -36 199 -80 277 -95 83 -16
328 -8 407 14 153 42 289 117 384 209 39 38 56 49 66 42 7 -6 47 -38 87 -72
73 -62 192 -129 279 -157 118 -38 198 -48 348 -44 132 4 157 8 247 37 287 94
504 296 614 571 44 113 61 219 61 396 l0 154 123 0 c155 0 276 21 402 71 176
68 330 179 436 312 143 179 223 363 264 600 l6 37 66 0 c61 0 69 -3 109 -35
53 -44 86 -57 149 -57 65 -1 115 23 164 78 65 74 73 158 25 241 -59 101 -179
137 -284 83 -21 -11 -47 -31 -58 -45 -18 -23 -27 -25 -95 -25 l-74 0 -7 81
c-23 277 -136 521 -332 714 l-91 90 -6 71 c-13 159 -112 407 -217 546 -112
148 -310 296 -498 374 -68 28 -71 31 -99 89 -46 99 -136 225 -219 308 -393
391 -961 419 -1338 67 l-64 -60 -48 45 c-72 68 -210 157 -296 193 -137 57
-324 82 -468 62z m243 -369 c101 -26 144 -50 220 -121 60 -56 113 -136 140
-213 8 -22 13 -229 17 -657 l5 -625 45 5 c58 6 224 6 275 0 l40 -5 5 620 c4
472 9 630 19 660 46 140 152 258 284 314 61 26 185 45 259 39 287 -24 538
-286 538 -562 0 -85 -4 -82 102 -85 170 -5 389 -111 498 -241 151 -180 202
-344 164 -526 -8 -37 -13 -68 -12 -69 200 -113 358 -289 425 -473 48 -132 63
-225 58 -367 -5 -162 -28 -257 -94 -390 -105 -212 -260 -345 -455 -390 -52
-12 -139 -16 -384 -18 l-317 -2 0 -340 c-1 -329 -1 -342 -24 -410 -31 -92 -61
-150 -109 -207 -128 -153 -279 -222 -467 -213 -237 10 -412 148 -470 371 -12
47 -15 136 -15 476 l0 418 -184 0 -185 0 -3 -442 c-4 -422 -5 -446 -25 -500
-67 -179 -207 -293 -391 -319 -283 -39 -545 129 -638 411 -15 47 -19 104 -23
405 l-6 350 -345 6 c-378 6 -376 6 -505 72 -188 97 -338 321 -381 567 -24 138
-15 326 20 437 76 235 200 401 382 511 l72 43 -14 52 c-37 139 3 325 99 467
130 189 368 320 584 320 l73 0 0 53 c0 74 23 173 58 249 118 260 396 397 665
329z"/>
<path d="M4325 7776 c-48 -21 -96 -67 -116 -111 -35 -75 -17 -191 35 -234 14
-11 16 -42 16 -195 l0 -182 -254 -3 c-179 -2 -266 1 -295 10 -78 23 -165 -23
-197 -107 -21 -55 -9 -106 37 -159 43 -48 94 -61 164 -41 42 13 106 16 299 16
l246 0 0 -208 0 -208 -482 2 c-266 1 -499 5 -519 9 -39 7 -98 -12 -132 -43
-79 -72 -57 -201 44 -253 33 -17 51 -19 88 -14 25 4 294 10 596 14 627 7 592
2 650 96 l30 48 3 595 2 595 29 36 c44 57 54 81 53 137 -1 122 -99 215 -227
214 -22 -1 -53 -7 -70 -14z"/>
<path d="M5722 7769 c-73 -37 -122 -115 -122 -198 0 -39 22 -94 55 -137 l25
-33 0 -576 0 -575 50 -98 c73 -142 94 -236 87 -387 -6 -141 -27 -220 -93 -343
l-45 -83 4 -402 4 -401 -29 -30 c-15 -17 -35 -52 -43 -78 -40 -136 62 -271
205 -271 90 0 171 55 207 140 25 60 10 147 -37 213 -20 28 -20 40 -18 556 l3
528 61 -96 61 -95 351 5 351 5 48 -31 c72 -46 121 -57 180 -43 71 18 110 47
143 105 52 90 34 195 -45 264 -47 42 -74 52 -136 52 -58 0 -113 -21 -150 -56
l-25 -24 -264 2 -265 3 -39 65 c-47 78 -158 285 -232 432 l-54 107 0 564 0
564 26 24 c125 117 16 349 -166 349 -36 0 -70 -7 -98 -21z"/>
<path d="M6467 7055 c-80 -28 -123 -97 -112 -179 4 -28 9 -186 11 -350 3 -279
5 -302 25 -342 25 -53 67 -90 117 -104 20 -5 127 -10 238 -10 122 0 214 -4
233 -11 72 -25 172 36 187 116 13 73 -24 152 -85 177 -16 7 -102 10 -228 9
l-203 -3 0 229 c1 179 4 233 15 253 41 72 -16 189 -105 214 -50 15 -56 15 -93
1z"/>
<path d="M5038 6309 c-201 -31 -370 -178 -431 -374 -26 -85 -29 -139 -12 -232
40 -216 174 -368 374 -427 70 -20 209 -21 286 -1 211 55 346 220 377 461 10
78 9 100 -5 158 -41 167 -146 301 -288 369 -93 44 -203 61 -301 46z m184 -199
c73 -27 150 -97 184 -167 22 -43 29 -75 32 -139 l5 -84 -241 0 c-132 0 -247
-3 -256 -6 -14 -5 -13 -9 2 -32 68 -108 196 -132 298 -56 l31 23 57 -58 56
-57 -52 -31 c-89 -54 -127 -65 -213 -66 -66 -1 -90 4 -137 25 -126 58 -209
177 -210 304 -2 164 77 286 225 346 58 23 154 23 219 -2z"/>
<path d="M5034 5966 c-35 -15 -84 -74 -84 -99 0 -15 18 -17 170 -17 187 0 182
-2 138 63 -42 59 -150 85 -224 53z"/>
<path d="M3210 5760 c-148 -27 -221 -174 -154 -309 38 -75 96 -111 180 -111
52 0 74 6 130 35 l67 35 325 0 c372 0 367 1 455 -88 l48 -49 -1 -368 -1 -367
-23 -32 c-109 -147 -8 -349 175 -348 60 1 106 20 148 63 44 43 61 86 61 149 0
58 -16 102 -53 146 l-27 32 0 399 0 400 -41 64 c-54 84 -181 208 -244 239
l-50 25 -389 3 -390 3 -29 25 c-54 46 -123 66 -187 54z"/>
<path d="M2960 4318 c-56 -29 -81 -64 -87 -121 -11 -91 62 -177 148 -177 102
0 183 114 149 209 -17 48 -37 70 -85 92 -52 24 -72 24 -125 -3z"/>
<path d="M7149 4317 c-47 -25 -89 -89 -89 -137 0 -40 42 -113 79 -137 110 -74
261 31 236 163 -8 47 -68 111 -113 124 -52 14 -63 13 -113 -13z"/>
<path d="M7250 2920 c0 -246 -1 -248 -66 -190 -44 38 -103 53 -187 47 -153
-10 -298 -132 -350 -292 -18 -55 -24 -167 -12 -230 21 -114 122 -242 235 -298
53 -26 80 -32 146 -35 191 -9 338 78 422 247 l37 75 3 448 3 448 -116 0 -115
0 0 -220z m-94 -395 c113 -66 129 -232 31 -323 -41 -39 -112 -60 -165 -50
-156 29 -218 194 -122 328 50 70 176 92 256 45z"/>
<path d="M5850 2490 l0 -570 360 0 360 0 -1 28 c0 15 -8 61 -17 102 l-17 75
-222 3 -223 2 0 115 0 115 205 0 205 0 0 111 0 112 -205 -7 -205 -8 0 131 0
131 240 0 240 0 0 115 0 115 -360 0 -360 0 0 -570z"/>
<path d="M5310 2860 l0 -100 -50 0 -50 0 0 -100 0 -100 50 0 50 0 0 -225 c0
-256 6 -282 82 -350 64 -58 120 -78 201 -71 72 7 140 34 151 61 11 31 6 75
-15 120 -25 54 -44 71 -61 57 -22 -17 -82 -23 -99 -10 -34 28 -39 55 -39 237
l0 181 90 0 90 0 0 100 0 100 -90 0 -90 0 0 100 0 100 -110 0 -110 0 0 -100z"/>
<path d="M1945 2760 c-131 -51 -210 -200 -170 -322 34 -105 89 -146 255 -188
97 -24 130 -42 130 -70 0 -31 -46 -54 -110 -55 -47 0 -71 7 -129 37 l-72 36
-54 -81 c-63 -94 -66 -85 45 -141 111 -57 189 -72 287 -56 101 17 185 78 224
163 26 58 26 165 0 216 -41 80 -110 120 -266 157 -104 24 -139 81 -69 110 41
17 73 13 151 -21 l51 -23 38 61 c20 34 46 72 56 84 l20 21 -39 26 c-98 65
-247 85 -348 46z"/>
<path d="M2847 2765 c-32 -8 -62 -26 -88 -51 l-39 -38 0 42 0 42 -107 0 -108
0 -1 -420 -2 -420 119 0 119 0 0 268 c0 301 4 320 71 356 61 33 132 -4 149
-79 5 -22 10 -154 10 -292 l0 -253 110 0 110 0 0 270 c0 290 3 310 52 344 26
18 90 21 119 6 45 -25 49 -52 49 -345 l0 -275 110 0 110 0 0 303 c0 347 -4
375 -70 450 -59 66 -134 100 -224 101 -84 1 -131 -14 -190 -59 l-44 -33 -23
24 c-52 55 -151 81 -232 59z"/>
<path d="M3989 2762 c-60 -20 -150 -75 -187 -115 l-22 -24 116 -57 c65 -31
120 -53 123 -48 24 37 118 44 178 13 79 -40 113 -96 113 -187 0 -69 -17 -111
-63 -151 -90 -79 -222 -63 -286 35 -30 46 -39 129 -17 172 8 18 14 35 12 39
-10 15 -126 63 -140 58 -29 -11 -75 -88 -87 -145 -41 -199 105 -404 308 -431
90 -13 138 7 211 84 l62 67 0 -76 0 -76 115 0 115 0 0 420 0 420 -105 0 -105
0 0 -26 c0 -14 -3 -24 -7 -22 -101 51 -129 60 -201 64 -57 3 -91 -1 -133 -14z"/>
<path d="M5062 2768 c-53 -9 -94 -31 -138 -73 -20 -19 -38 -35 -40 -35 -2 0
-4 23 -4 50 l0 50 -105 0 -105 0 0 -420 0 -420 110 0 110 0 0 248 c0 220 2
251 19 289 35 77 134 113 216 79 l35 -15 0 120 c0 65 -1 122 -2 126 -4 9 -48
9 -96 1z"/>
<path d="M7632 2468 c3 -276 4 -296 25 -340 71 -155 255 -244 428 -208 106 22
178 71 235 160 53 82 59 124 60 416 l1 264 -121 0 -120 0 0 -255 c0 -200 -3
-262 -14 -283 -52 -99 -173 -107 -236 -15 -25 36 -25 38 -28 295 l-3 258 -115
0 -115 0 3 -292z"/>
</g>
</svg>
